<?xml version="1.0" encoding="UTF-8"?>
<svg id="Layer_1" data-name="Layer 1" xmlns="http://www.w3.org/2000/svg" viewBox="0 0 803.46 299.39">
  <defs>
    <style>
      .cls-1 {
        fill: #fff;
      }
    </style>
  </defs>
  <path class="cls-1" d="M142.27,3.84h76.3c49.95,0,79.88,17.84,79.88,62.85,0,32.12-15.1,49.69-42.28,57.93l45.29,82.34h-47.22l-42.26-76.57h-25.8v76.57h-43.92V3.84ZM216.65,95.79c25.8,0,38.15-7.42,38.15-28.01s-12.35-27.45-38.15-27.45h-30.46v55.45h30.46Z"/>
  <path class="cls-1" d="M309.97,3.84h138.34v37.33h-93.6v43.65h67.81v35.4h-67.81v50.51h98.54v36.23h-143.28V3.84Z"/>
  <path class="cls-1" d="M457.83,160.86l33.77-20.05c11.26,22.24,31.58,34.6,54.92,34.6,20.56,0,35.4-7.69,35.4-23.33s-14.55-21.97-41.17-29.37c-36.25-10.17-74.11-19.49-74.11-62.05,0-37.88,29.64-60.66,73.27-60.66s66.45,20.03,80.73,41.73l-31.02,23.6c-10.73-17.3-30.22-28.83-49.98-28.83s-29.37,8.25-29.37,20.32c0,16.2,15.11,21.97,41.73,29.37,35.69,9.61,73.56,20.88,73.56,62.87,0,32.65-24.7,61.75-81.24,61.75-43.92,0-71.37-20.85-86.47-49.95Z"/>
  <g>
    <path class="cls-1" d="M108.55,291.05l5.63-3.33c1.88,3.69,5.26,5.77,9.15,5.77,3.43,0,5.9-1.3,5.9-3.89s-2.43-3.67-6.86-4.89c-6.05-1.7-12.36-3.26-12.36-10.35,0-6.3,4.94-10.1,12.21-10.1s11.07,3.33,13.46,6.95l-5.17,3.93c-1.78-2.88-5.03-4.81-8.33-4.81s-4.89,1.36-4.89,3.37c0,2.7,2.51,3.67,6.96,4.89,5.95,1.61,12.26,3.49,12.26,10.48,0,5.45-4.12,10.3-13.54,10.3-7.32,0-11.89-3.49-14.42-8.34Z"/>
    <path class="cls-1" d="M230.81,271.11h-10.07v-6.24h27.64v6.24h-10.11v27.63h-7.45v-27.63Z"/>
    <path class="cls-1" d="M334.72,285.8v-20.92h7.45v20.74c0,4.89,1.88,7.62,6.31,7.62s6.22-2.68,6.22-7.62v-20.74h7.32v20.88c0,8.31-4.21,13.54-13.63,13.54s-13.68-5.23-13.68-13.5Z"/>
    <path class="cls-1" d="M450.84,264.88h10.39c10.35,0,18.13,4.4,18.13,16.74s-7.93,17.12-18.13,17.12h-10.39v-33.86ZM461.73,292.7c7.38,0,10.17-3.31,10.17-10.97,0-7.24-2.84-10.62-10.26-10.62h-3.37v21.59h3.46Z"/>
    <path class="cls-1" d="M567.49,264.88h7.4v33.86h-7.4v-33.86Z"/>
    <path class="cls-1" d="M663.01,281.82c0-11.91,7.78-17.57,15.98-17.57s15.91,5.65,15.91,17.57-7.78,17.57-15.91,17.57-15.98-5.68-15.98-17.57ZM687.49,281.82c0-7.11-3.29-11.4-8.49-11.4s-8.52,4.29-8.52,11.4,3.24,11.58,8.52,11.58,8.49-4.49,8.49-11.58Z"/>
  </g>
  <polygon class="cls-1" points="134.23 41.17 134.23 3.84 0 3.84 0 162.23 44.73 206.97 44.73 162.23 44.73 125.99 108.42 125.99 108.42 90.59 44.73 90.59 44.73 41.17 134.23 41.17"/>
  <polygon class="cls-1" points="758.72 3.84 758.72 82.63 678.84 82.63 678.84 3.84 634.09 3.84 634.09 206.97 678.84 206.97 678.84 120.22 758.72 120.22 758.72 206.97 803.46 206.97 803.46 48.58 758.73 3.84 758.72 3.84"/>
</svg>